<svg width="27" height="32" viewBox="0 0 27 32" fill="none" xmlns="http://www.w3.org/2000/svg">
<rect y="1.22403" width="27" height="30.776" rx="5" fill="#363636"/>
<rect x="0.623108" y="1.74866" width="25.7538" height="29.7268" rx="5" fill="#F2F2F2"/>
<path d="M10.3846 2.44809C10.3846 1.09605 11.4806 0 12.8327 0H14.375C15.727 0 16.823 1.09605 16.823 2.44809V2.44809H10.3846V2.44809Z" fill="#363636"/>
<ellipse cx="11.1115" cy="1.83606" rx="0.311538" ry="0.262295" fill="white"/>
<ellipse cx="16.0961" cy="1.83606" rx="0.311538" ry="0.262295" fill="white"/>
<rect x="4.33955" y="7.38798" width="1.08235" height="0.786885" rx="0.393443" stroke="#363636" stroke-width="0.786885"/>
<rect x="4.33955" y="10.8853" width="1.08235" height="0.786885" rx="0.393443" stroke="#363636" stroke-width="0.786885"/>
<rect x="4.33955" y="14.3825" width="1.08235" height="0.786885" rx="0.393443" stroke="#363636" stroke-width="0.786885"/>
<rect x="4.33955" y="17.8798" width="1.08235" height="0.786885" rx="0.393443" stroke="#363636" stroke-width="0.786885"/>
<rect x="4.33955" y="21.3771" width="1.08235" height="0.786885" rx="0.393443" stroke="#363636" stroke-width="0.786885"/>
<rect x="4.33955" y="24.8743" width="1.08235" height="0.786885" rx="0.393443" stroke="#363636" stroke-width="0.786885"/>
<rect x="6.64618" y="7.1694" width="15.9923" height="1.22404" rx="0.612022" fill="#363636"/>
<rect x="6.64618" y="10.6667" width="9.13846" height="1.22404" rx="0.612022" fill="#363636"/>
<rect x="6.64618" y="14.1639" width="10.8" height="1.22404" rx="0.612022" fill="#363636"/>
<rect x="6.64618" y="17.6612" width="14.9538" height="1.22404" rx="0.612022" fill="#363636"/>
<rect x="6.64618" y="21.1585" width="13.7077" height="1.22404" rx="0.612022" fill="#363636"/>
<rect x="6.64618" y="24.6558" width="15.9923" height="1.22404" rx="0.612022" fill="#363636"/>
</svg>
